<mxfile host="app.diagrams.net" agent="Mozilla/5.0 (Windows NT 10.0; Win64; x64) AppleWebKit/537.36 (KHTML, like Gecko) Chrome/131.0.0.0 Safari/537.36" version="26.0.5">
  <diagram name="Page-1" id="kF43es_LPg35GqdCbvMX">
    <mxGraphModel dx="2643" dy="2045" grid="1" gridSize="10" guides="1" tooltips="1" connect="1" arrows="1" fold="1" page="1" pageScale="1" pageWidth="850" pageHeight="1100" math="0" shadow="0">
      <root>
        <mxCell id="0" />
        <mxCell id="1" parent="0" />
        <mxCell id="GNo-StdVLnUh18D_-ZFn-536" value="Users" style="shape=table;startSize=30;container=1;collapsible=1;childLayout=tableLayout;fixedRows=1;rowLines=0;fontStyle=1;align=center;resizeLast=1;html=1;fillColor=#dae8fc;strokeColor=#6c8ebf;gradientColor=#7ea6e0;" vertex="1" parent="1">
          <mxGeometry x="150" y="170" width="180" height="230" as="geometry">
            <mxRectangle x="150" y="170" width="70" height="30" as="alternateBounds" />
          </mxGeometry>
        </mxCell>
        <mxCell id="GNo-StdVLnUh18D_-ZFn-537" value="" style="shape=tableRow;horizontal=0;startSize=0;swimlaneHead=0;swimlaneBody=0;fillColor=none;collapsible=0;dropTarget=0;points=[[0,0.5],[1,0.5]];portConstraint=eastwest;top=0;left=0;right=0;bottom=1;" vertex="1" parent="GNo-StdVLnUh18D_-ZFn-536">
          <mxGeometry y="30" width="180" height="50" as="geometry" />
        </mxCell>
        <mxCell id="GNo-StdVLnUh18D_-ZFn-538" value="PK" style="shape=partialRectangle;connectable=0;fillColor=#ffcd28;top=0;left=0;bottom=0;right=0;fontStyle=1;overflow=hidden;whiteSpace=wrap;html=1;strokeColor=#d79b00;gradientColor=#ffa500;" vertex="1" parent="GNo-StdVLnUh18D_-ZFn-537">
          <mxGeometry width="30" height="50" as="geometry">
            <mxRectangle width="30" height="50" as="alternateBounds" />
          </mxGeometry>
        </mxCell>
        <mxCell id="GNo-StdVLnUh18D_-ZFn-539" value="&lt;code&gt;user_id&lt;/code&gt;" style="shape=partialRectangle;connectable=0;fillColor=#fff2cc;top=0;left=0;bottom=0;right=0;align=left;spacingLeft=6;fontStyle=5;overflow=hidden;whiteSpace=wrap;html=1;strokeColor=#d6b656;gradientColor=#ffd966;" vertex="1" parent="GNo-StdVLnUh18D_-ZFn-537">
          <mxGeometry x="30" width="150" height="50" as="geometry">
            <mxRectangle width="150" height="50" as="alternateBounds" />
          </mxGeometry>
        </mxCell>
        <mxCell id="GNo-StdVLnUh18D_-ZFn-540" value="" style="shape=tableRow;horizontal=0;startSize=0;swimlaneHead=0;swimlaneBody=0;fillColor=none;collapsible=0;dropTarget=0;points=[[0,0.5],[1,0.5]];portConstraint=eastwest;top=0;left=0;right=0;bottom=0;" vertex="1" parent="GNo-StdVLnUh18D_-ZFn-536">
          <mxGeometry y="80" width="180" height="30" as="geometry" />
        </mxCell>
        <mxCell id="GNo-StdVLnUh18D_-ZFn-541" value="" style="shape=partialRectangle;connectable=0;fillColor=#f5f5f5;top=0;left=0;bottom=0;right=0;editable=1;overflow=hidden;whiteSpace=wrap;html=1;strokeColor=#666666;gradientColor=#b3b3b3;" vertex="1" parent="GNo-StdVLnUh18D_-ZFn-540">
          <mxGeometry width="30" height="30" as="geometry">
            <mxRectangle width="30" height="30" as="alternateBounds" />
          </mxGeometry>
        </mxCell>
        <mxCell id="GNo-StdVLnUh18D_-ZFn-542" value="name" style="shape=partialRectangle;connectable=0;fillColor=#f8cecc;top=0;left=0;bottom=0;right=0;align=left;spacingLeft=6;overflow=hidden;whiteSpace=wrap;html=1;strokeColor=#b85450;gradientColor=#ea6b66;" vertex="1" parent="GNo-StdVLnUh18D_-ZFn-540">
          <mxGeometry x="30" width="150" height="30" as="geometry">
            <mxRectangle width="150" height="30" as="alternateBounds" />
          </mxGeometry>
        </mxCell>
        <mxCell id="GNo-StdVLnUh18D_-ZFn-543" value="" style="shape=tableRow;horizontal=0;startSize=0;swimlaneHead=0;swimlaneBody=0;fillColor=none;collapsible=0;dropTarget=0;points=[[0,0.5],[1,0.5]];portConstraint=eastwest;top=0;left=0;right=0;bottom=0;" vertex="1" parent="GNo-StdVLnUh18D_-ZFn-536">
          <mxGeometry y="110" width="180" height="30" as="geometry" />
        </mxCell>
        <mxCell id="GNo-StdVLnUh18D_-ZFn-544" value="" style="shape=partialRectangle;connectable=0;fillColor=#f5f5f5;top=0;left=0;bottom=0;right=0;editable=1;overflow=hidden;whiteSpace=wrap;html=1;strokeColor=#666666;gradientColor=#b3b3b3;" vertex="1" parent="GNo-StdVLnUh18D_-ZFn-543">
          <mxGeometry width="30" height="30" as="geometry">
            <mxRectangle width="30" height="30" as="alternateBounds" />
          </mxGeometry>
        </mxCell>
        <mxCell id="GNo-StdVLnUh18D_-ZFn-545" value="email" style="shape=partialRectangle;connectable=0;fillColor=#f8cecc;top=0;left=0;bottom=0;right=0;align=left;spacingLeft=6;overflow=hidden;whiteSpace=wrap;html=1;strokeColor=#b85450;gradientColor=#ea6b66;" vertex="1" parent="GNo-StdVLnUh18D_-ZFn-543">
          <mxGeometry x="30" width="150" height="30" as="geometry">
            <mxRectangle width="150" height="30" as="alternateBounds" />
          </mxGeometry>
        </mxCell>
        <mxCell id="GNo-StdVLnUh18D_-ZFn-546" value="" style="shape=tableRow;horizontal=0;startSize=0;swimlaneHead=0;swimlaneBody=0;fillColor=none;collapsible=0;dropTarget=0;points=[[0,0.5],[1,0.5]];portConstraint=eastwest;top=0;left=0;right=0;bottom=0;" vertex="1" parent="GNo-StdVLnUh18D_-ZFn-536">
          <mxGeometry y="140" width="180" height="30" as="geometry" />
        </mxCell>
        <mxCell id="GNo-StdVLnUh18D_-ZFn-547" value="" style="shape=partialRectangle;connectable=0;fillColor=#f5f5f5;top=0;left=0;bottom=0;right=0;editable=1;overflow=hidden;whiteSpace=wrap;html=1;strokeColor=#666666;gradientColor=#b3b3b3;" vertex="1" parent="GNo-StdVLnUh18D_-ZFn-546">
          <mxGeometry width="30" height="30" as="geometry">
            <mxRectangle width="30" height="30" as="alternateBounds" />
          </mxGeometry>
        </mxCell>
        <mxCell id="GNo-StdVLnUh18D_-ZFn-548" value="password_hash" style="shape=partialRectangle;connectable=0;fillColor=#f8cecc;top=0;left=0;bottom=0;right=0;align=left;spacingLeft=6;overflow=hidden;whiteSpace=wrap;html=1;strokeColor=#b85450;gradientColor=#ea6b66;" vertex="1" parent="GNo-StdVLnUh18D_-ZFn-546">
          <mxGeometry x="30" width="150" height="30" as="geometry">
            <mxRectangle width="150" height="30" as="alternateBounds" />
          </mxGeometry>
        </mxCell>
        <mxCell id="GNo-StdVLnUh18D_-ZFn-549" value="" style="shape=tableRow;horizontal=0;startSize=0;swimlaneHead=0;swimlaneBody=0;fillColor=none;collapsible=0;dropTarget=0;points=[[0,0.5],[1,0.5]];portConstraint=eastwest;top=0;left=0;right=0;bottom=0;" vertex="1" parent="GNo-StdVLnUh18D_-ZFn-536">
          <mxGeometry y="170" width="180" height="30" as="geometry" />
        </mxCell>
        <mxCell id="GNo-StdVLnUh18D_-ZFn-550" value="" style="shape=partialRectangle;connectable=0;fillColor=#f5f5f5;top=0;left=0;bottom=0;right=0;editable=1;overflow=hidden;whiteSpace=wrap;html=1;strokeColor=#666666;gradientColor=#b3b3b3;" vertex="1" parent="GNo-StdVLnUh18D_-ZFn-549">
          <mxGeometry width="30" height="30" as="geometry">
            <mxRectangle width="30" height="30" as="alternateBounds" />
          </mxGeometry>
        </mxCell>
        <mxCell id="GNo-StdVLnUh18D_-ZFn-551" value="&lt;code&gt;role&lt;/code&gt;" style="shape=partialRectangle;connectable=0;fillColor=#f8cecc;top=0;left=0;bottom=0;right=0;align=left;spacingLeft=6;overflow=hidden;whiteSpace=wrap;html=1;strokeColor=#b85450;gradientColor=#ea6b66;" vertex="1" parent="GNo-StdVLnUh18D_-ZFn-549">
          <mxGeometry x="30" width="150" height="30" as="geometry">
            <mxRectangle width="150" height="30" as="alternateBounds" />
          </mxGeometry>
        </mxCell>
        <mxCell id="GNo-StdVLnUh18D_-ZFn-552" value="" style="shape=tableRow;horizontal=0;startSize=0;swimlaneHead=0;swimlaneBody=0;fillColor=none;collapsible=0;dropTarget=0;points=[[0,0.5],[1,0.5]];portConstraint=eastwest;top=0;left=0;right=0;bottom=0;" vertex="1" parent="GNo-StdVLnUh18D_-ZFn-536">
          <mxGeometry y="200" width="180" height="30" as="geometry" />
        </mxCell>
        <mxCell id="GNo-StdVLnUh18D_-ZFn-553" value="" style="shape=partialRectangle;connectable=0;fillColor=#f5f5f5;top=0;left=0;bottom=0;right=0;editable=1;overflow=hidden;whiteSpace=wrap;html=1;strokeColor=#666666;gradientColor=#b3b3b3;" vertex="1" parent="GNo-StdVLnUh18D_-ZFn-552">
          <mxGeometry width="30" height="30" as="geometry">
            <mxRectangle width="30" height="30" as="alternateBounds" />
          </mxGeometry>
        </mxCell>
        <mxCell id="GNo-StdVLnUh18D_-ZFn-554" value="address" style="shape=partialRectangle;connectable=0;fillColor=#f8cecc;top=0;left=0;bottom=0;right=0;align=left;spacingLeft=6;overflow=hidden;whiteSpace=wrap;html=1;strokeColor=#b85450;gradientColor=#ea6b66;" vertex="1" parent="GNo-StdVLnUh18D_-ZFn-552">
          <mxGeometry x="30" width="150" height="30" as="geometry">
            <mxRectangle width="150" height="30" as="alternateBounds" />
          </mxGeometry>
        </mxCell>
        <mxCell id="GNo-StdVLnUh18D_-ZFn-558" value="Doctors" style="shape=table;startSize=30;container=1;collapsible=1;childLayout=tableLayout;fixedRows=1;rowLines=0;fontStyle=1;align=center;resizeLast=1;html=1;fillColor=#dae8fc;gradientColor=#7ea6e0;strokeColor=#6c8ebf;" vertex="1" parent="1">
          <mxGeometry x="170" y="630" width="180" height="160" as="geometry" />
        </mxCell>
        <mxCell id="GNo-StdVLnUh18D_-ZFn-559" value="" style="shape=tableRow;horizontal=0;startSize=0;swimlaneHead=0;swimlaneBody=0;fillColor=none;collapsible=0;dropTarget=0;points=[[0,0.5],[1,0.5]];portConstraint=eastwest;top=0;left=0;right=0;bottom=1;" vertex="1" parent="GNo-StdVLnUh18D_-ZFn-558">
          <mxGeometry y="30" width="180" height="40" as="geometry" />
        </mxCell>
        <mxCell id="GNo-StdVLnUh18D_-ZFn-560" value="PK" style="shape=partialRectangle;connectable=0;fillColor=#ffcd28;top=0;left=0;bottom=0;right=0;fontStyle=1;overflow=hidden;whiteSpace=wrap;html=1;gradientColor=#ffa500;strokeColor=#d79b00;" vertex="1" parent="GNo-StdVLnUh18D_-ZFn-559">
          <mxGeometry width="30" height="40" as="geometry">
            <mxRectangle width="30" height="40" as="alternateBounds" />
          </mxGeometry>
        </mxCell>
        <mxCell id="GNo-StdVLnUh18D_-ZFn-561" value="&lt;code&gt;doctor_id&lt;/code&gt;" style="shape=partialRectangle;connectable=0;fillColor=#fff2cc;top=0;left=0;bottom=0;right=0;align=left;spacingLeft=6;fontStyle=5;overflow=hidden;whiteSpace=wrap;html=1;gradientColor=#ffd966;strokeColor=#d6b656;" vertex="1" parent="GNo-StdVLnUh18D_-ZFn-559">
          <mxGeometry x="30" width="150" height="40" as="geometry">
            <mxRectangle width="150" height="40" as="alternateBounds" />
          </mxGeometry>
        </mxCell>
        <mxCell id="GNo-StdVLnUh18D_-ZFn-562" value="" style="shape=tableRow;horizontal=0;startSize=0;swimlaneHead=0;swimlaneBody=0;fillColor=none;collapsible=0;dropTarget=0;points=[[0,0.5],[1,0.5]];portConstraint=eastwest;top=0;left=0;right=0;bottom=0;" vertex="1" parent="GNo-StdVLnUh18D_-ZFn-558">
          <mxGeometry y="70" width="180" height="30" as="geometry" />
        </mxCell>
        <mxCell id="GNo-StdVLnUh18D_-ZFn-563" value="" style="shape=partialRectangle;connectable=0;fillColor=#f5f5f5;top=0;left=0;bottom=0;right=0;editable=1;overflow=hidden;whiteSpace=wrap;html=1;gradientColor=#b3b3b3;strokeColor=#666666;" vertex="1" parent="GNo-StdVLnUh18D_-ZFn-562">
          <mxGeometry width="30" height="30" as="geometry">
            <mxRectangle width="30" height="30" as="alternateBounds" />
          </mxGeometry>
        </mxCell>
        <mxCell id="GNo-StdVLnUh18D_-ZFn-564" value="user_id" style="shape=partialRectangle;connectable=0;fillColor=#f8cecc;top=0;left=0;bottom=0;right=0;align=left;spacingLeft=6;overflow=hidden;whiteSpace=wrap;html=1;gradientColor=#ea6b66;strokeColor=#b85450;" vertex="1" parent="GNo-StdVLnUh18D_-ZFn-562">
          <mxGeometry x="30" width="150" height="30" as="geometry">
            <mxRectangle width="150" height="30" as="alternateBounds" />
          </mxGeometry>
        </mxCell>
        <mxCell id="GNo-StdVLnUh18D_-ZFn-565" value="" style="shape=tableRow;horizontal=0;startSize=0;swimlaneHead=0;swimlaneBody=0;fillColor=none;collapsible=0;dropTarget=0;points=[[0,0.5],[1,0.5]];portConstraint=eastwest;top=0;left=0;right=0;bottom=0;" vertex="1" parent="GNo-StdVLnUh18D_-ZFn-558">
          <mxGeometry y="100" width="180" height="30" as="geometry" />
        </mxCell>
        <mxCell id="GNo-StdVLnUh18D_-ZFn-566" value="" style="shape=partialRectangle;connectable=0;fillColor=#f5f5f5;top=0;left=0;bottom=0;right=0;editable=1;overflow=hidden;whiteSpace=wrap;html=1;gradientColor=#b3b3b3;strokeColor=#666666;" vertex="1" parent="GNo-StdVLnUh18D_-ZFn-565">
          <mxGeometry width="30" height="30" as="geometry">
            <mxRectangle width="30" height="30" as="alternateBounds" />
          </mxGeometry>
        </mxCell>
        <mxCell id="GNo-StdVLnUh18D_-ZFn-567" value="specialization" style="shape=partialRectangle;connectable=0;fillColor=#f8cecc;top=0;left=0;bottom=0;right=0;align=left;spacingLeft=6;overflow=hidden;whiteSpace=wrap;html=1;gradientColor=#ea6b66;strokeColor=#b85450;" vertex="1" parent="GNo-StdVLnUh18D_-ZFn-565">
          <mxGeometry x="30" width="150" height="30" as="geometry">
            <mxRectangle width="150" height="30" as="alternateBounds" />
          </mxGeometry>
        </mxCell>
        <mxCell id="GNo-StdVLnUh18D_-ZFn-568" value="" style="shape=tableRow;horizontal=0;startSize=0;swimlaneHead=0;swimlaneBody=0;fillColor=none;collapsible=0;dropTarget=0;points=[[0,0.5],[1,0.5]];portConstraint=eastwest;top=0;left=0;right=0;bottom=0;" vertex="1" parent="GNo-StdVLnUh18D_-ZFn-558">
          <mxGeometry y="130" width="180" height="30" as="geometry" />
        </mxCell>
        <mxCell id="GNo-StdVLnUh18D_-ZFn-569" value="" style="shape=partialRectangle;connectable=0;fillColor=#f5f5f5;top=0;left=0;bottom=0;right=0;editable=1;overflow=hidden;whiteSpace=wrap;html=1;gradientColor=#b3b3b3;strokeColor=#666666;" vertex="1" parent="GNo-StdVLnUh18D_-ZFn-568">
          <mxGeometry width="30" height="30" as="geometry">
            <mxRectangle width="30" height="30" as="alternateBounds" />
          </mxGeometry>
        </mxCell>
        <mxCell id="GNo-StdVLnUh18D_-ZFn-570" value="license_number" style="shape=partialRectangle;connectable=0;fillColor=#f8cecc;top=0;left=0;bottom=0;right=0;align=left;spacingLeft=6;overflow=hidden;whiteSpace=wrap;html=1;gradientColor=#ea6b66;strokeColor=#b85450;" vertex="1" parent="GNo-StdVLnUh18D_-ZFn-568">
          <mxGeometry x="30" width="150" height="30" as="geometry">
            <mxRectangle width="150" height="30" as="alternateBounds" />
          </mxGeometry>
        </mxCell>
        <mxCell id="GNo-StdVLnUh18D_-ZFn-584" style="edgeStyle=orthogonalEdgeStyle;rounded=0;orthogonalLoop=1;jettySize=auto;html=1;exitX=0;exitY=0.5;exitDx=0;exitDy=0;entryX=-0.005;entryY=0.746;entryDx=0;entryDy=0;entryPerimeter=0;" edge="1" parent="1" source="GNo-StdVLnUh18D_-ZFn-562" target="GNo-StdVLnUh18D_-ZFn-537">
          <mxGeometry relative="1" as="geometry">
            <mxPoint x="120" y="230" as="targetPoint" />
          </mxGeometry>
        </mxCell>
        <mxCell id="GNo-StdVLnUh18D_-ZFn-585" value="Appointments" style="shape=table;startSize=30;container=1;collapsible=1;childLayout=tableLayout;fixedRows=1;rowLines=0;fontStyle=1;align=center;resizeLast=1;html=1;fillColor=#dae8fc;gradientColor=#7ea6e0;strokeColor=#6c8ebf;" vertex="1" parent="1">
          <mxGeometry x="670" y="570" width="180" height="180" as="geometry" />
        </mxCell>
        <mxCell id="GNo-StdVLnUh18D_-ZFn-586" value="" style="shape=tableRow;horizontal=0;startSize=0;swimlaneHead=0;swimlaneBody=0;fillColor=none;collapsible=0;dropTarget=0;points=[[0,0.5],[1,0.5]];portConstraint=eastwest;top=0;left=0;right=0;bottom=1;" vertex="1" parent="GNo-StdVLnUh18D_-ZFn-585">
          <mxGeometry y="30" width="180" height="30" as="geometry" />
        </mxCell>
        <mxCell id="GNo-StdVLnUh18D_-ZFn-587" value="PK" style="shape=partialRectangle;connectable=0;fillColor=#ffcd28;top=0;left=0;bottom=0;right=0;fontStyle=1;overflow=hidden;whiteSpace=wrap;html=1;gradientColor=#ffa500;strokeColor=#d79b00;" vertex="1" parent="GNo-StdVLnUh18D_-ZFn-586">
          <mxGeometry width="30" height="30" as="geometry">
            <mxRectangle width="30" height="30" as="alternateBounds" />
          </mxGeometry>
        </mxCell>
        <mxCell id="GNo-StdVLnUh18D_-ZFn-588" value="&lt;code&gt;appointment_id&lt;/code&gt;" style="shape=partialRectangle;connectable=0;fillColor=#fff2cc;top=0;left=0;bottom=0;right=0;align=left;spacingLeft=6;fontStyle=5;overflow=hidden;whiteSpace=wrap;html=1;gradientColor=#ffd966;strokeColor=#d6b656;" vertex="1" parent="GNo-StdVLnUh18D_-ZFn-586">
          <mxGeometry x="30" width="150" height="30" as="geometry">
            <mxRectangle width="150" height="30" as="alternateBounds" />
          </mxGeometry>
        </mxCell>
        <mxCell id="GNo-StdVLnUh18D_-ZFn-589" value="" style="shape=tableRow;horizontal=0;startSize=0;swimlaneHead=0;swimlaneBody=0;fillColor=none;collapsible=0;dropTarget=0;points=[[0,0.5],[1,0.5]];portConstraint=eastwest;top=0;left=0;right=0;bottom=0;" vertex="1" parent="GNo-StdVLnUh18D_-ZFn-585">
          <mxGeometry y="60" width="180" height="30" as="geometry" />
        </mxCell>
        <mxCell id="GNo-StdVLnUh18D_-ZFn-590" value="" style="shape=partialRectangle;connectable=0;fillColor=#f5f5f5;top=0;left=0;bottom=0;right=0;editable=1;overflow=hidden;whiteSpace=wrap;html=1;gradientColor=#b3b3b3;strokeColor=#666666;" vertex="1" parent="GNo-StdVLnUh18D_-ZFn-589">
          <mxGeometry width="30" height="30" as="geometry">
            <mxRectangle width="30" height="30" as="alternateBounds" />
          </mxGeometry>
        </mxCell>
        <mxCell id="GNo-StdVLnUh18D_-ZFn-591" value="&lt;code&gt;patient_id&lt;/code&gt;" style="shape=partialRectangle;connectable=0;fillColor=#d5e8d4;top=0;left=0;bottom=0;right=0;align=left;spacingLeft=6;overflow=hidden;whiteSpace=wrap;html=1;gradientColor=#97d077;strokeColor=#82b366;" vertex="1" parent="GNo-StdVLnUh18D_-ZFn-589">
          <mxGeometry x="30" width="150" height="30" as="geometry">
            <mxRectangle width="150" height="30" as="alternateBounds" />
          </mxGeometry>
        </mxCell>
        <mxCell id="GNo-StdVLnUh18D_-ZFn-592" value="" style="shape=tableRow;horizontal=0;startSize=0;swimlaneHead=0;swimlaneBody=0;fillColor=none;collapsible=0;dropTarget=0;points=[[0,0.5],[1,0.5]];portConstraint=eastwest;top=0;left=0;right=0;bottom=0;" vertex="1" parent="GNo-StdVLnUh18D_-ZFn-585">
          <mxGeometry y="90" width="180" height="30" as="geometry" />
        </mxCell>
        <mxCell id="GNo-StdVLnUh18D_-ZFn-593" value="" style="shape=partialRectangle;connectable=0;fillColor=#f5f5f5;top=0;left=0;bottom=0;right=0;editable=1;overflow=hidden;whiteSpace=wrap;html=1;gradientColor=#b3b3b3;strokeColor=#666666;" vertex="1" parent="GNo-StdVLnUh18D_-ZFn-592">
          <mxGeometry width="30" height="30" as="geometry">
            <mxRectangle width="30" height="30" as="alternateBounds" />
          </mxGeometry>
        </mxCell>
        <mxCell id="GNo-StdVLnUh18D_-ZFn-594" value="&lt;code&gt;doctor_id&lt;/code&gt;" style="shape=partialRectangle;connectable=0;fillColor=#d5e8d4;top=0;left=0;bottom=0;right=0;align=left;spacingLeft=6;overflow=hidden;whiteSpace=wrap;html=1;gradientColor=#97d077;strokeColor=#82b366;" vertex="1" parent="GNo-StdVLnUh18D_-ZFn-592">
          <mxGeometry x="30" width="150" height="30" as="geometry">
            <mxRectangle width="150" height="30" as="alternateBounds" />
          </mxGeometry>
        </mxCell>
        <mxCell id="GNo-StdVLnUh18D_-ZFn-595" value="" style="shape=tableRow;horizontal=0;startSize=0;swimlaneHead=0;swimlaneBody=0;fillColor=none;collapsible=0;dropTarget=0;points=[[0,0.5],[1,0.5]];portConstraint=eastwest;top=0;left=0;right=0;bottom=0;" vertex="1" parent="GNo-StdVLnUh18D_-ZFn-585">
          <mxGeometry y="120" width="180" height="30" as="geometry" />
        </mxCell>
        <mxCell id="GNo-StdVLnUh18D_-ZFn-596" value="" style="shape=partialRectangle;connectable=0;fillColor=#f5f5f5;top=0;left=0;bottom=0;right=0;editable=1;overflow=hidden;whiteSpace=wrap;html=1;gradientColor=#b3b3b3;strokeColor=#666666;" vertex="1" parent="GNo-StdVLnUh18D_-ZFn-595">
          <mxGeometry width="30" height="30" as="geometry">
            <mxRectangle width="30" height="30" as="alternateBounds" />
          </mxGeometry>
        </mxCell>
        <mxCell id="GNo-StdVLnUh18D_-ZFn-597" value="&lt;code&gt;appointment_type&lt;/code&gt;" style="shape=partialRectangle;connectable=0;fillColor=#d5e8d4;top=0;left=0;bottom=0;right=0;align=left;spacingLeft=6;overflow=hidden;whiteSpace=wrap;html=1;gradientColor=#97d077;strokeColor=#82b366;" vertex="1" parent="GNo-StdVLnUh18D_-ZFn-595">
          <mxGeometry x="30" width="150" height="30" as="geometry">
            <mxRectangle width="150" height="30" as="alternateBounds" />
          </mxGeometry>
        </mxCell>
        <mxCell id="GNo-StdVLnUh18D_-ZFn-599" value="" style="shape=tableRow;horizontal=0;startSize=0;swimlaneHead=0;swimlaneBody=0;fillColor=none;collapsible=0;dropTarget=0;points=[[0,0.5],[1,0.5]];portConstraint=eastwest;top=0;left=0;right=0;bottom=0;" vertex="1" parent="GNo-StdVLnUh18D_-ZFn-585">
          <mxGeometry y="150" width="180" height="30" as="geometry" />
        </mxCell>
        <mxCell id="GNo-StdVLnUh18D_-ZFn-600" value="" style="shape=partialRectangle;connectable=0;fillColor=#f5f5f5;top=0;left=0;bottom=0;right=0;editable=1;overflow=hidden;whiteSpace=wrap;html=1;gradientColor=#b3b3b3;strokeColor=#666666;" vertex="1" parent="GNo-StdVLnUh18D_-ZFn-599">
          <mxGeometry width="30" height="30" as="geometry">
            <mxRectangle width="30" height="30" as="alternateBounds" />
          </mxGeometry>
        </mxCell>
        <mxCell id="GNo-StdVLnUh18D_-ZFn-601" value="prescription" style="shape=partialRectangle;connectable=0;fillColor=#d5e8d4;top=0;left=0;bottom=0;right=0;align=left;spacingLeft=6;overflow=hidden;whiteSpace=wrap;html=1;gradientColor=#97d077;strokeColor=#82b366;" vertex="1" parent="GNo-StdVLnUh18D_-ZFn-599">
          <mxGeometry x="30" width="150" height="30" as="geometry">
            <mxRectangle width="150" height="30" as="alternateBounds" />
          </mxGeometry>
        </mxCell>
        <mxCell id="GNo-StdVLnUh18D_-ZFn-605" style="edgeStyle=orthogonalEdgeStyle;rounded=0;orthogonalLoop=1;jettySize=auto;html=1;entryX=1.001;entryY=0.953;entryDx=0;entryDy=0;entryPerimeter=0;" edge="1" parent="1" source="GNo-StdVLnUh18D_-ZFn-589" target="GNo-StdVLnUh18D_-ZFn-537">
          <mxGeometry relative="1" as="geometry" />
        </mxCell>
        <mxCell id="GNo-StdVLnUh18D_-ZFn-606" style="edgeStyle=orthogonalEdgeStyle;rounded=0;orthogonalLoop=1;jettySize=auto;html=1;exitX=0;exitY=0.5;exitDx=0;exitDy=0;entryX=1;entryY=0.5;entryDx=0;entryDy=0;" edge="1" parent="1" source="GNo-StdVLnUh18D_-ZFn-592" target="GNo-StdVLnUh18D_-ZFn-559">
          <mxGeometry relative="1" as="geometry">
            <Array as="points">
              <mxPoint x="670" y="680" />
            </Array>
          </mxGeometry>
        </mxCell>
        <mxCell id="GNo-StdVLnUh18D_-ZFn-607" value="BloodDonors" style="shape=table;startSize=30;container=1;collapsible=1;childLayout=tableLayout;fixedRows=1;rowLines=0;fontStyle=1;align=center;resizeLast=1;html=1;fillColor=#dae8fc;gradientColor=#7ea6e0;strokeColor=#6c8ebf;" vertex="1" parent="1">
          <mxGeometry x="780" y="270" width="180" height="150" as="geometry" />
        </mxCell>
        <mxCell id="GNo-StdVLnUh18D_-ZFn-608" value="" style="shape=tableRow;horizontal=0;startSize=0;swimlaneHead=0;swimlaneBody=0;fillColor=none;collapsible=0;dropTarget=0;points=[[0,0.5],[1,0.5]];portConstraint=eastwest;top=0;left=0;right=0;bottom=1;" vertex="1" parent="GNo-StdVLnUh18D_-ZFn-607">
          <mxGeometry y="30" width="180" height="30" as="geometry" />
        </mxCell>
        <mxCell id="GNo-StdVLnUh18D_-ZFn-609" value="PK" style="shape=partialRectangle;connectable=0;fillColor=#ffcd28;top=0;left=0;bottom=0;right=0;fontStyle=1;overflow=hidden;whiteSpace=wrap;html=1;gradientColor=#ffa500;strokeColor=#d79b00;" vertex="1" parent="GNo-StdVLnUh18D_-ZFn-608">
          <mxGeometry width="30" height="30" as="geometry">
            <mxRectangle width="30" height="30" as="alternateBounds" />
          </mxGeometry>
        </mxCell>
        <mxCell id="GNo-StdVLnUh18D_-ZFn-610" value="&lt;code&gt;donor_id&lt;/code&gt;" style="shape=partialRectangle;connectable=0;fillColor=#fff2cc;top=0;left=0;bottom=0;right=0;align=left;spacingLeft=6;fontStyle=5;overflow=hidden;whiteSpace=wrap;html=1;gradientColor=#ffd966;strokeColor=#d6b656;" vertex="1" parent="GNo-StdVLnUh18D_-ZFn-608">
          <mxGeometry x="30" width="150" height="30" as="geometry">
            <mxRectangle width="150" height="30" as="alternateBounds" />
          </mxGeometry>
        </mxCell>
        <mxCell id="GNo-StdVLnUh18D_-ZFn-611" value="" style="shape=tableRow;horizontal=0;startSize=0;swimlaneHead=0;swimlaneBody=0;fillColor=none;collapsible=0;dropTarget=0;points=[[0,0.5],[1,0.5]];portConstraint=eastwest;top=0;left=0;right=0;bottom=0;" vertex="1" parent="GNo-StdVLnUh18D_-ZFn-607">
          <mxGeometry y="60" width="180" height="30" as="geometry" />
        </mxCell>
        <mxCell id="GNo-StdVLnUh18D_-ZFn-612" value="" style="shape=partialRectangle;connectable=0;fillColor=#f5f5f5;top=0;left=0;bottom=0;right=0;editable=1;overflow=hidden;whiteSpace=wrap;html=1;gradientColor=#b3b3b3;strokeColor=#666666;" vertex="1" parent="GNo-StdVLnUh18D_-ZFn-611">
          <mxGeometry width="30" height="30" as="geometry">
            <mxRectangle width="30" height="30" as="alternateBounds" />
          </mxGeometry>
        </mxCell>
        <mxCell id="GNo-StdVLnUh18D_-ZFn-613" value="&lt;code&gt;user_id&lt;/code&gt;" style="shape=partialRectangle;connectable=0;fillColor=#d5e8d4;top=0;left=0;bottom=0;right=0;align=left;spacingLeft=6;overflow=hidden;whiteSpace=wrap;html=1;gradientColor=#97d077;strokeColor=#82b366;" vertex="1" parent="GNo-StdVLnUh18D_-ZFn-611">
          <mxGeometry x="30" width="150" height="30" as="geometry">
            <mxRectangle width="150" height="30" as="alternateBounds" />
          </mxGeometry>
        </mxCell>
        <mxCell id="GNo-StdVLnUh18D_-ZFn-614" value="" style="shape=tableRow;horizontal=0;startSize=0;swimlaneHead=0;swimlaneBody=0;fillColor=none;collapsible=0;dropTarget=0;points=[[0,0.5],[1,0.5]];portConstraint=eastwest;top=0;left=0;right=0;bottom=0;" vertex="1" parent="GNo-StdVLnUh18D_-ZFn-607">
          <mxGeometry y="90" width="180" height="30" as="geometry" />
        </mxCell>
        <mxCell id="GNo-StdVLnUh18D_-ZFn-615" value="" style="shape=partialRectangle;connectable=0;fillColor=#f5f5f5;top=0;left=0;bottom=0;right=0;editable=1;overflow=hidden;whiteSpace=wrap;html=1;gradientColor=#b3b3b3;strokeColor=#666666;" vertex="1" parent="GNo-StdVLnUh18D_-ZFn-614">
          <mxGeometry width="30" height="30" as="geometry">
            <mxRectangle width="30" height="30" as="alternateBounds" />
          </mxGeometry>
        </mxCell>
        <mxCell id="GNo-StdVLnUh18D_-ZFn-616" value="blood_group" style="shape=partialRectangle;connectable=0;fillColor=#d5e8d4;top=0;left=0;bottom=0;right=0;align=left;spacingLeft=6;overflow=hidden;whiteSpace=wrap;html=1;gradientColor=#97d077;strokeColor=#82b366;" vertex="1" parent="GNo-StdVLnUh18D_-ZFn-614">
          <mxGeometry x="30" width="150" height="30" as="geometry">
            <mxRectangle width="150" height="30" as="alternateBounds" />
          </mxGeometry>
        </mxCell>
        <mxCell id="GNo-StdVLnUh18D_-ZFn-617" value="" style="shape=tableRow;horizontal=0;startSize=0;swimlaneHead=0;swimlaneBody=0;fillColor=none;collapsible=0;dropTarget=0;points=[[0,0.5],[1,0.5]];portConstraint=eastwest;top=0;left=0;right=0;bottom=0;" vertex="1" parent="GNo-StdVLnUh18D_-ZFn-607">
          <mxGeometry y="120" width="180" height="30" as="geometry" />
        </mxCell>
        <mxCell id="GNo-StdVLnUh18D_-ZFn-618" value="" style="shape=partialRectangle;connectable=0;fillColor=#f5f5f5;top=0;left=0;bottom=0;right=0;editable=1;overflow=hidden;whiteSpace=wrap;html=1;gradientColor=#b3b3b3;strokeColor=#666666;" vertex="1" parent="GNo-StdVLnUh18D_-ZFn-617">
          <mxGeometry width="30" height="30" as="geometry">
            <mxRectangle width="30" height="30" as="alternateBounds" />
          </mxGeometry>
        </mxCell>
        <mxCell id="GNo-StdVLnUh18D_-ZFn-619" value="last_donation_date" style="shape=partialRectangle;connectable=0;fillColor=#d5e8d4;top=0;left=0;bottom=0;right=0;align=left;spacingLeft=6;overflow=hidden;whiteSpace=wrap;html=1;gradientColor=#97d077;strokeColor=#82b366;" vertex="1" parent="GNo-StdVLnUh18D_-ZFn-617">
          <mxGeometry x="30" width="150" height="30" as="geometry">
            <mxRectangle width="150" height="30" as="alternateBounds" />
          </mxGeometry>
        </mxCell>
        <mxCell id="GNo-StdVLnUh18D_-ZFn-620" style="edgeStyle=orthogonalEdgeStyle;rounded=0;orthogonalLoop=1;jettySize=auto;html=1;exitX=0;exitY=0.5;exitDx=0;exitDy=0;entryX=1.002;entryY=0.641;entryDx=0;entryDy=0;entryPerimeter=0;" edge="1" parent="1" source="GNo-StdVLnUh18D_-ZFn-611" target="GNo-StdVLnUh18D_-ZFn-537">
          <mxGeometry relative="1" as="geometry">
            <mxPoint x="331" y="220" as="targetPoint" />
          </mxGeometry>
        </mxCell>
        <mxCell id="GNo-StdVLnUh18D_-ZFn-647" value="BloodRequests" style="shape=table;startSize=30;container=1;collapsible=1;childLayout=tableLayout;fixedRows=1;rowLines=0;fontStyle=1;align=center;resizeLast=1;html=1;fillColor=#dae8fc;gradientColor=#7ea6e0;strokeColor=#6c8ebf;" vertex="1" parent="1">
          <mxGeometry x="780" width="180" height="150" as="geometry" />
        </mxCell>
        <mxCell id="GNo-StdVLnUh18D_-ZFn-648" value="" style="shape=tableRow;horizontal=0;startSize=0;swimlaneHead=0;swimlaneBody=0;fillColor=none;collapsible=0;dropTarget=0;points=[[0,0.5],[1,0.5]];portConstraint=eastwest;top=0;left=0;right=0;bottom=1;" vertex="1" parent="GNo-StdVLnUh18D_-ZFn-647">
          <mxGeometry y="30" width="180" height="30" as="geometry" />
        </mxCell>
        <mxCell id="GNo-StdVLnUh18D_-ZFn-649" value="PK" style="shape=partialRectangle;connectable=0;fillColor=#ffcd28;top=0;left=0;bottom=0;right=0;fontStyle=1;overflow=hidden;whiteSpace=wrap;html=1;gradientColor=#ffa500;strokeColor=#d79b00;" vertex="1" parent="GNo-StdVLnUh18D_-ZFn-648">
          <mxGeometry width="30" height="30" as="geometry">
            <mxRectangle width="30" height="30" as="alternateBounds" />
          </mxGeometry>
        </mxCell>
        <mxCell id="GNo-StdVLnUh18D_-ZFn-650" value="&lt;code&gt;request_id&lt;/code&gt;" style="shape=partialRectangle;connectable=0;fillColor=#fff2cc;top=0;left=0;bottom=0;right=0;align=left;spacingLeft=6;fontStyle=5;overflow=hidden;whiteSpace=wrap;html=1;gradientColor=#ffd966;strokeColor=#d6b656;" vertex="1" parent="GNo-StdVLnUh18D_-ZFn-648">
          <mxGeometry x="30" width="150" height="30" as="geometry">
            <mxRectangle width="150" height="30" as="alternateBounds" />
          </mxGeometry>
        </mxCell>
        <mxCell id="GNo-StdVLnUh18D_-ZFn-651" value="" style="shape=tableRow;horizontal=0;startSize=0;swimlaneHead=0;swimlaneBody=0;fillColor=none;collapsible=0;dropTarget=0;points=[[0,0.5],[1,0.5]];portConstraint=eastwest;top=0;left=0;right=0;bottom=0;" vertex="1" parent="GNo-StdVLnUh18D_-ZFn-647">
          <mxGeometry y="60" width="180" height="30" as="geometry" />
        </mxCell>
        <mxCell id="GNo-StdVLnUh18D_-ZFn-652" value="" style="shape=partialRectangle;connectable=0;fillColor=#f5f5f5;top=0;left=0;bottom=0;right=0;editable=1;overflow=hidden;whiteSpace=wrap;html=1;gradientColor=#b3b3b3;strokeColor=#666666;" vertex="1" parent="GNo-StdVLnUh18D_-ZFn-651">
          <mxGeometry width="30" height="30" as="geometry">
            <mxRectangle width="30" height="30" as="alternateBounds" />
          </mxGeometry>
        </mxCell>
        <mxCell id="GNo-StdVLnUh18D_-ZFn-653" value="&lt;code&gt;user_id&lt;/code&gt;" style="shape=partialRectangle;connectable=0;fillColor=#d5e8d4;top=0;left=0;bottom=0;right=0;align=left;spacingLeft=6;overflow=hidden;whiteSpace=wrap;html=1;gradientColor=#97d077;strokeColor=#82b366;" vertex="1" parent="GNo-StdVLnUh18D_-ZFn-651">
          <mxGeometry x="30" width="150" height="30" as="geometry">
            <mxRectangle width="150" height="30" as="alternateBounds" />
          </mxGeometry>
        </mxCell>
        <mxCell id="GNo-StdVLnUh18D_-ZFn-654" value="" style="shape=tableRow;horizontal=0;startSize=0;swimlaneHead=0;swimlaneBody=0;fillColor=none;collapsible=0;dropTarget=0;points=[[0,0.5],[1,0.5]];portConstraint=eastwest;top=0;left=0;right=0;bottom=0;" vertex="1" parent="GNo-StdVLnUh18D_-ZFn-647">
          <mxGeometry y="90" width="180" height="30" as="geometry" />
        </mxCell>
        <mxCell id="GNo-StdVLnUh18D_-ZFn-655" value="" style="shape=partialRectangle;connectable=0;fillColor=#f5f5f5;top=0;left=0;bottom=0;right=0;editable=1;overflow=hidden;whiteSpace=wrap;html=1;gradientColor=#b3b3b3;strokeColor=#666666;" vertex="1" parent="GNo-StdVLnUh18D_-ZFn-654">
          <mxGeometry width="30" height="30" as="geometry">
            <mxRectangle width="30" height="30" as="alternateBounds" />
          </mxGeometry>
        </mxCell>
        <mxCell id="GNo-StdVLnUh18D_-ZFn-656" value="blood_group" style="shape=partialRectangle;connectable=0;fillColor=#d5e8d4;top=0;left=0;bottom=0;right=0;align=left;spacingLeft=6;overflow=hidden;whiteSpace=wrap;html=1;gradientColor=#97d077;strokeColor=#82b366;" vertex="1" parent="GNo-StdVLnUh18D_-ZFn-654">
          <mxGeometry x="30" width="150" height="30" as="geometry">
            <mxRectangle width="150" height="30" as="alternateBounds" />
          </mxGeometry>
        </mxCell>
        <mxCell id="GNo-StdVLnUh18D_-ZFn-657" value="" style="shape=tableRow;horizontal=0;startSize=0;swimlaneHead=0;swimlaneBody=0;fillColor=none;collapsible=0;dropTarget=0;points=[[0,0.5],[1,0.5]];portConstraint=eastwest;top=0;left=0;right=0;bottom=0;" vertex="1" parent="GNo-StdVLnUh18D_-ZFn-647">
          <mxGeometry y="120" width="180" height="30" as="geometry" />
        </mxCell>
        <mxCell id="GNo-StdVLnUh18D_-ZFn-658" value="" style="shape=partialRectangle;connectable=0;fillColor=#f5f5f5;top=0;left=0;bottom=0;right=0;editable=1;overflow=hidden;whiteSpace=wrap;html=1;gradientColor=#b3b3b3;strokeColor=#666666;" vertex="1" parent="GNo-StdVLnUh18D_-ZFn-657">
          <mxGeometry width="30" height="30" as="geometry">
            <mxRectangle width="30" height="30" as="alternateBounds" />
          </mxGeometry>
        </mxCell>
        <mxCell id="GNo-StdVLnUh18D_-ZFn-659" value="Row 3" style="shape=partialRectangle;connectable=0;fillColor=#d5e8d4;top=0;left=0;bottom=0;right=0;align=left;spacingLeft=6;overflow=hidden;whiteSpace=wrap;html=1;gradientColor=#97d077;strokeColor=#82b366;" vertex="1" parent="GNo-StdVLnUh18D_-ZFn-657">
          <mxGeometry x="30" width="150" height="30" as="geometry">
            <mxRectangle width="150" height="30" as="alternateBounds" />
          </mxGeometry>
        </mxCell>
        <mxCell id="GNo-StdVLnUh18D_-ZFn-660" style="edgeStyle=orthogonalEdgeStyle;rounded=0;orthogonalLoop=1;jettySize=auto;html=1;exitX=0;exitY=0.5;exitDx=0;exitDy=0;entryX=1.003;entryY=0.337;entryDx=0;entryDy=0;entryPerimeter=0;" edge="1" parent="1" source="GNo-StdVLnUh18D_-ZFn-651" target="GNo-StdVLnUh18D_-ZFn-537">
          <mxGeometry relative="1" as="geometry" />
        </mxCell>
        <mxCell id="GNo-StdVLnUh18D_-ZFn-661" value="UserCommunityPosts" style="shape=table;startSize=30;container=1;collapsible=1;childLayout=tableLayout;fixedRows=1;rowLines=0;fontStyle=1;align=center;resizeLast=1;html=1;fillColor=#dae8fc;strokeColor=#6c8ebf;gradientColor=#7ea6e0;" vertex="1" parent="1">
          <mxGeometry x="-380" y="-190" width="180" height="150" as="geometry" />
        </mxCell>
        <mxCell id="GNo-StdVLnUh18D_-ZFn-662" value="" style="shape=tableRow;horizontal=0;startSize=0;swimlaneHead=0;swimlaneBody=0;fillColor=none;collapsible=0;dropTarget=0;points=[[0,0.5],[1,0.5]];portConstraint=eastwest;top=0;left=0;right=0;bottom=1;" vertex="1" parent="GNo-StdVLnUh18D_-ZFn-661">
          <mxGeometry y="30" width="180" height="30" as="geometry" />
        </mxCell>
        <mxCell id="GNo-StdVLnUh18D_-ZFn-663" value="PK" style="shape=partialRectangle;connectable=0;fillColor=#ffcd28;top=0;left=0;bottom=0;right=0;fontStyle=1;overflow=hidden;whiteSpace=wrap;html=1;strokeColor=#d79b00;gradientColor=#ffa500;" vertex="1" parent="GNo-StdVLnUh18D_-ZFn-662">
          <mxGeometry width="30" height="30" as="geometry">
            <mxRectangle width="30" height="30" as="alternateBounds" />
          </mxGeometry>
        </mxCell>
        <mxCell id="GNo-StdVLnUh18D_-ZFn-664" value="&lt;code&gt;post_id&lt;/code&gt;" style="shape=partialRectangle;connectable=0;fillColor=#fff2cc;top=0;left=0;bottom=0;right=0;align=left;spacingLeft=6;fontStyle=5;overflow=hidden;whiteSpace=wrap;html=1;gradientColor=#ffd966;strokeColor=#d6b656;" vertex="1" parent="GNo-StdVLnUh18D_-ZFn-662">
          <mxGeometry x="30" width="150" height="30" as="geometry">
            <mxRectangle width="150" height="30" as="alternateBounds" />
          </mxGeometry>
        </mxCell>
        <mxCell id="GNo-StdVLnUh18D_-ZFn-665" value="" style="shape=tableRow;horizontal=0;startSize=0;swimlaneHead=0;swimlaneBody=0;fillColor=none;collapsible=0;dropTarget=0;points=[[0,0.5],[1,0.5]];portConstraint=eastwest;top=0;left=0;right=0;bottom=0;" vertex="1" parent="GNo-StdVLnUh18D_-ZFn-661">
          <mxGeometry y="60" width="180" height="30" as="geometry" />
        </mxCell>
        <mxCell id="GNo-StdVLnUh18D_-ZFn-666" value="" style="shape=partialRectangle;connectable=0;fillColor=#f5f5f5;top=0;left=0;bottom=0;right=0;editable=1;overflow=hidden;whiteSpace=wrap;html=1;gradientColor=#b3b3b3;strokeColor=#666666;" vertex="1" parent="GNo-StdVLnUh18D_-ZFn-665">
          <mxGeometry width="30" height="30" as="geometry">
            <mxRectangle width="30" height="30" as="alternateBounds" />
          </mxGeometry>
        </mxCell>
        <mxCell id="GNo-StdVLnUh18D_-ZFn-667" value="title" style="shape=partialRectangle;connectable=0;fillColor=#d5e8d4;top=0;left=0;bottom=0;right=0;align=left;spacingLeft=6;overflow=hidden;whiteSpace=wrap;html=1;gradientColor=#97d077;strokeColor=#82b366;" vertex="1" parent="GNo-StdVLnUh18D_-ZFn-665">
          <mxGeometry x="30" width="150" height="30" as="geometry">
            <mxRectangle width="150" height="30" as="alternateBounds" />
          </mxGeometry>
        </mxCell>
        <mxCell id="GNo-StdVLnUh18D_-ZFn-668" value="" style="shape=tableRow;horizontal=0;startSize=0;swimlaneHead=0;swimlaneBody=0;fillColor=none;collapsible=0;dropTarget=0;points=[[0,0.5],[1,0.5]];portConstraint=eastwest;top=0;left=0;right=0;bottom=0;" vertex="1" parent="GNo-StdVLnUh18D_-ZFn-661">
          <mxGeometry y="90" width="180" height="30" as="geometry" />
        </mxCell>
        <mxCell id="GNo-StdVLnUh18D_-ZFn-669" value="" style="shape=partialRectangle;connectable=0;fillColor=#f5f5f5;top=0;left=0;bottom=0;right=0;editable=1;overflow=hidden;whiteSpace=wrap;html=1;gradientColor=#b3b3b3;strokeColor=#666666;" vertex="1" parent="GNo-StdVLnUh18D_-ZFn-668">
          <mxGeometry width="30" height="30" as="geometry">
            <mxRectangle width="30" height="30" as="alternateBounds" />
          </mxGeometry>
        </mxCell>
        <mxCell id="GNo-StdVLnUh18D_-ZFn-670" value="content" style="shape=partialRectangle;connectable=0;fillColor=#d5e8d4;top=0;left=0;bottom=0;right=0;align=left;spacingLeft=6;overflow=hidden;whiteSpace=wrap;html=1;gradientColor=#97d077;strokeColor=#82b366;" vertex="1" parent="GNo-StdVLnUh18D_-ZFn-668">
          <mxGeometry x="30" width="150" height="30" as="geometry">
            <mxRectangle width="150" height="30" as="alternateBounds" />
          </mxGeometry>
        </mxCell>
        <mxCell id="GNo-StdVLnUh18D_-ZFn-671" value="" style="shape=tableRow;horizontal=0;startSize=0;swimlaneHead=0;swimlaneBody=0;fillColor=none;collapsible=0;dropTarget=0;points=[[0,0.5],[1,0.5]];portConstraint=eastwest;top=0;left=0;right=0;bottom=0;" vertex="1" parent="GNo-StdVLnUh18D_-ZFn-661">
          <mxGeometry y="120" width="180" height="30" as="geometry" />
        </mxCell>
        <mxCell id="GNo-StdVLnUh18D_-ZFn-672" value="" style="shape=partialRectangle;connectable=0;fillColor=#f5f5f5;top=0;left=0;bottom=0;right=0;editable=1;overflow=hidden;whiteSpace=wrap;html=1;gradientColor=#b3b3b3;strokeColor=#666666;" vertex="1" parent="GNo-StdVLnUh18D_-ZFn-671">
          <mxGeometry width="30" height="30" as="geometry">
            <mxRectangle width="30" height="30" as="alternateBounds" />
          </mxGeometry>
        </mxCell>
        <mxCell id="GNo-StdVLnUh18D_-ZFn-673" value="created_at" style="shape=partialRectangle;connectable=0;fillColor=#d5e8d4;top=0;left=0;bottom=0;right=0;align=left;spacingLeft=6;overflow=hidden;whiteSpace=wrap;html=1;gradientColor=#97d077;strokeColor=#82b366;" vertex="1" parent="GNo-StdVLnUh18D_-ZFn-671">
          <mxGeometry x="30" width="150" height="30" as="geometry">
            <mxRectangle width="150" height="30" as="alternateBounds" />
          </mxGeometry>
        </mxCell>
        <mxCell id="GNo-StdVLnUh18D_-ZFn-674" style="edgeStyle=orthogonalEdgeStyle;rounded=0;orthogonalLoop=1;jettySize=auto;html=1;exitX=1;exitY=0.5;exitDx=0;exitDy=0;entryX=-0.005;entryY=0.109;entryDx=0;entryDy=0;entryPerimeter=0;" edge="1" parent="1" source="GNo-StdVLnUh18D_-ZFn-662" target="GNo-StdVLnUh18D_-ZFn-537">
          <mxGeometry relative="1" as="geometry">
            <mxPoint x="140" y="10" as="targetPoint" />
          </mxGeometry>
        </mxCell>
        <mxCell id="GNo-StdVLnUh18D_-ZFn-675" value="DoctorCommunityPosts" style="shape=table;startSize=30;container=1;collapsible=1;childLayout=tableLayout;fixedRows=1;rowLines=0;fontStyle=1;align=center;resizeLast=1;html=1;fillColor=#dae8fc;gradientColor=#7ea6e0;strokeColor=#6c8ebf;" vertex="1" parent="1">
          <mxGeometry x="-390" y="430" width="180" height="150" as="geometry" />
        </mxCell>
        <mxCell id="GNo-StdVLnUh18D_-ZFn-676" value="" style="shape=tableRow;horizontal=0;startSize=0;swimlaneHead=0;swimlaneBody=0;fillColor=none;collapsible=0;dropTarget=0;points=[[0,0.5],[1,0.5]];portConstraint=eastwest;top=0;left=0;right=0;bottom=1;" vertex="1" parent="GNo-StdVLnUh18D_-ZFn-675">
          <mxGeometry y="30" width="180" height="30" as="geometry" />
        </mxCell>
        <mxCell id="GNo-StdVLnUh18D_-ZFn-677" value="PK" style="shape=partialRectangle;connectable=0;fillColor=#ffcd28;top=0;left=0;bottom=0;right=0;fontStyle=1;overflow=hidden;whiteSpace=wrap;html=1;gradientColor=#ffa500;strokeColor=#d79b00;" vertex="1" parent="GNo-StdVLnUh18D_-ZFn-676">
          <mxGeometry width="30" height="30" as="geometry">
            <mxRectangle width="30" height="30" as="alternateBounds" />
          </mxGeometry>
        </mxCell>
        <mxCell id="GNo-StdVLnUh18D_-ZFn-678" value="&lt;code&gt;post_id&lt;/code&gt;" style="shape=partialRectangle;connectable=0;fillColor=#fff2cc;top=0;left=0;bottom=0;right=0;align=left;spacingLeft=6;fontStyle=5;overflow=hidden;whiteSpace=wrap;html=1;gradientColor=#ffd966;strokeColor=#d6b656;" vertex="1" parent="GNo-StdVLnUh18D_-ZFn-676">
          <mxGeometry x="30" width="150" height="30" as="geometry">
            <mxRectangle width="150" height="30" as="alternateBounds" />
          </mxGeometry>
        </mxCell>
        <mxCell id="GNo-StdVLnUh18D_-ZFn-679" value="" style="shape=tableRow;horizontal=0;startSize=0;swimlaneHead=0;swimlaneBody=0;fillColor=none;collapsible=0;dropTarget=0;points=[[0,0.5],[1,0.5]];portConstraint=eastwest;top=0;left=0;right=0;bottom=0;" vertex="1" parent="GNo-StdVLnUh18D_-ZFn-675">
          <mxGeometry y="60" width="180" height="30" as="geometry" />
        </mxCell>
        <mxCell id="GNo-StdVLnUh18D_-ZFn-680" value="" style="shape=partialRectangle;connectable=0;fillColor=#f5f5f5;top=0;left=0;bottom=0;right=0;editable=1;overflow=hidden;whiteSpace=wrap;html=1;gradientColor=#b3b3b3;strokeColor=#666666;" vertex="1" parent="GNo-StdVLnUh18D_-ZFn-679">
          <mxGeometry width="30" height="30" as="geometry">
            <mxRectangle width="30" height="30" as="alternateBounds" />
          </mxGeometry>
        </mxCell>
        <mxCell id="GNo-StdVLnUh18D_-ZFn-681" value="&lt;code&gt;doctor_id&lt;/code&gt;" style="shape=partialRectangle;connectable=0;fillColor=#d5e8d4;top=0;left=0;bottom=0;right=0;align=left;spacingLeft=6;overflow=hidden;whiteSpace=wrap;html=1;gradientColor=#97d077;strokeColor=#82b366;" vertex="1" parent="GNo-StdVLnUh18D_-ZFn-679">
          <mxGeometry x="30" width="150" height="30" as="geometry">
            <mxRectangle width="150" height="30" as="alternateBounds" />
          </mxGeometry>
        </mxCell>
        <mxCell id="GNo-StdVLnUh18D_-ZFn-682" value="" style="shape=tableRow;horizontal=0;startSize=0;swimlaneHead=0;swimlaneBody=0;fillColor=none;collapsible=0;dropTarget=0;points=[[0,0.5],[1,0.5]];portConstraint=eastwest;top=0;left=0;right=0;bottom=0;" vertex="1" parent="GNo-StdVLnUh18D_-ZFn-675">
          <mxGeometry y="90" width="180" height="30" as="geometry" />
        </mxCell>
        <mxCell id="GNo-StdVLnUh18D_-ZFn-683" value="" style="shape=partialRectangle;connectable=0;fillColor=#f5f5f5;top=0;left=0;bottom=0;right=0;editable=1;overflow=hidden;whiteSpace=wrap;html=1;gradientColor=#b3b3b3;strokeColor=#666666;" vertex="1" parent="GNo-StdVLnUh18D_-ZFn-682">
          <mxGeometry width="30" height="30" as="geometry">
            <mxRectangle width="30" height="30" as="alternateBounds" />
          </mxGeometry>
        </mxCell>
        <mxCell id="GNo-StdVLnUh18D_-ZFn-684" value="content" style="shape=partialRectangle;connectable=0;fillColor=#d5e8d4;top=0;left=0;bottom=0;right=0;align=left;spacingLeft=6;overflow=hidden;whiteSpace=wrap;html=1;gradientColor=#97d077;strokeColor=#82b366;" vertex="1" parent="GNo-StdVLnUh18D_-ZFn-682">
          <mxGeometry x="30" width="150" height="30" as="geometry">
            <mxRectangle width="150" height="30" as="alternateBounds" />
          </mxGeometry>
        </mxCell>
        <mxCell id="GNo-StdVLnUh18D_-ZFn-685" value="" style="shape=tableRow;horizontal=0;startSize=0;swimlaneHead=0;swimlaneBody=0;fillColor=none;collapsible=0;dropTarget=0;points=[[0,0.5],[1,0.5]];portConstraint=eastwest;top=0;left=0;right=0;bottom=0;" vertex="1" parent="GNo-StdVLnUh18D_-ZFn-675">
          <mxGeometry y="120" width="180" height="30" as="geometry" />
        </mxCell>
        <mxCell id="GNo-StdVLnUh18D_-ZFn-686" value="" style="shape=partialRectangle;connectable=0;fillColor=#f5f5f5;top=0;left=0;bottom=0;right=0;editable=1;overflow=hidden;whiteSpace=wrap;html=1;gradientColor=#b3b3b3;strokeColor=#666666;" vertex="1" parent="GNo-StdVLnUh18D_-ZFn-685">
          <mxGeometry width="30" height="30" as="geometry">
            <mxRectangle width="30" height="30" as="alternateBounds" />
          </mxGeometry>
        </mxCell>
        <mxCell id="GNo-StdVLnUh18D_-ZFn-687" value="created_at" style="shape=partialRectangle;connectable=0;fillColor=#d5e8d4;top=0;left=0;bottom=0;right=0;align=left;spacingLeft=6;overflow=hidden;whiteSpace=wrap;html=1;gradientColor=#97d077;strokeColor=#82b366;" vertex="1" parent="GNo-StdVLnUh18D_-ZFn-685">
          <mxGeometry x="30" width="150" height="30" as="geometry">
            <mxRectangle width="150" height="30" as="alternateBounds" />
          </mxGeometry>
        </mxCell>
        <mxCell id="GNo-StdVLnUh18D_-ZFn-688" style="edgeStyle=orthogonalEdgeStyle;rounded=0;orthogonalLoop=1;jettySize=auto;html=1;exitX=1;exitY=0.5;exitDx=0;exitDy=0;entryX=-0.002;entryY=0.173;entryDx=0;entryDy=0;entryPerimeter=0;" edge="1" parent="1" source="GNo-StdVLnUh18D_-ZFn-679" target="GNo-StdVLnUh18D_-ZFn-559">
          <mxGeometry relative="1" as="geometry" />
        </mxCell>
        <mxCell id="GNo-StdVLnUh18D_-ZFn-689" value="Blog Posts" style="shape=table;startSize=30;container=1;collapsible=1;childLayout=tableLayout;fixedRows=1;rowLines=0;fontStyle=1;align=center;resizeLast=1;html=1;fillColor=#dae8fc;gradientColor=#7ea6e0;strokeColor=#6c8ebf;" vertex="1" parent="1">
          <mxGeometry x="-390" y="680" width="180" height="150" as="geometry" />
        </mxCell>
        <mxCell id="GNo-StdVLnUh18D_-ZFn-690" value="" style="shape=tableRow;horizontal=0;startSize=0;swimlaneHead=0;swimlaneBody=0;fillColor=none;collapsible=0;dropTarget=0;points=[[0,0.5],[1,0.5]];portConstraint=eastwest;top=0;left=0;right=0;bottom=1;" vertex="1" parent="GNo-StdVLnUh18D_-ZFn-689">
          <mxGeometry y="30" width="180" height="30" as="geometry" />
        </mxCell>
        <mxCell id="GNo-StdVLnUh18D_-ZFn-691" value="PK" style="shape=partialRectangle;connectable=0;fillColor=#ffcd28;top=0;left=0;bottom=0;right=0;fontStyle=1;overflow=hidden;whiteSpace=wrap;html=1;gradientColor=#ffa500;strokeColor=#d79b00;" vertex="1" parent="GNo-StdVLnUh18D_-ZFn-690">
          <mxGeometry width="30" height="30" as="geometry">
            <mxRectangle width="30" height="30" as="alternateBounds" />
          </mxGeometry>
        </mxCell>
        <mxCell id="GNo-StdVLnUh18D_-ZFn-692" value="&lt;code&gt;blog_id&lt;/code&gt;" style="shape=partialRectangle;connectable=0;fillColor=#fff2cc;top=0;left=0;bottom=0;right=0;align=left;spacingLeft=6;fontStyle=5;overflow=hidden;whiteSpace=wrap;html=1;gradientColor=#ffd966;strokeColor=#d6b656;" vertex="1" parent="GNo-StdVLnUh18D_-ZFn-690">
          <mxGeometry x="30" width="150" height="30" as="geometry">
            <mxRectangle width="150" height="30" as="alternateBounds" />
          </mxGeometry>
        </mxCell>
        <mxCell id="GNo-StdVLnUh18D_-ZFn-693" value="" style="shape=tableRow;horizontal=0;startSize=0;swimlaneHead=0;swimlaneBody=0;fillColor=none;collapsible=0;dropTarget=0;points=[[0,0.5],[1,0.5]];portConstraint=eastwest;top=0;left=0;right=0;bottom=0;" vertex="1" parent="GNo-StdVLnUh18D_-ZFn-689">
          <mxGeometry y="60" width="180" height="30" as="geometry" />
        </mxCell>
        <mxCell id="GNo-StdVLnUh18D_-ZFn-694" value="" style="shape=partialRectangle;connectable=0;fillColor=#f5f5f5;top=0;left=0;bottom=0;right=0;editable=1;overflow=hidden;whiteSpace=wrap;html=1;gradientColor=#b3b3b3;strokeColor=#666666;" vertex="1" parent="GNo-StdVLnUh18D_-ZFn-693">
          <mxGeometry width="30" height="30" as="geometry">
            <mxRectangle width="30" height="30" as="alternateBounds" />
          </mxGeometry>
        </mxCell>
        <mxCell id="GNo-StdVLnUh18D_-ZFn-695" value="&lt;code&gt;doctor_id&lt;/code&gt;" style="shape=partialRectangle;connectable=0;fillColor=#d5e8d4;top=0;left=0;bottom=0;right=0;align=left;spacingLeft=6;overflow=hidden;whiteSpace=wrap;html=1;gradientColor=#97d077;strokeColor=#82b366;" vertex="1" parent="GNo-StdVLnUh18D_-ZFn-693">
          <mxGeometry x="30" width="150" height="30" as="geometry">
            <mxRectangle width="150" height="30" as="alternateBounds" />
          </mxGeometry>
        </mxCell>
        <mxCell id="GNo-StdVLnUh18D_-ZFn-696" value="" style="shape=tableRow;horizontal=0;startSize=0;swimlaneHead=0;swimlaneBody=0;fillColor=none;collapsible=0;dropTarget=0;points=[[0,0.5],[1,0.5]];portConstraint=eastwest;top=0;left=0;right=0;bottom=0;" vertex="1" parent="GNo-StdVLnUh18D_-ZFn-689">
          <mxGeometry y="90" width="180" height="30" as="geometry" />
        </mxCell>
        <mxCell id="GNo-StdVLnUh18D_-ZFn-697" value="" style="shape=partialRectangle;connectable=0;fillColor=#f5f5f5;top=0;left=0;bottom=0;right=0;editable=1;overflow=hidden;whiteSpace=wrap;html=1;gradientColor=#b3b3b3;strokeColor=#666666;" vertex="1" parent="GNo-StdVLnUh18D_-ZFn-696">
          <mxGeometry width="30" height="30" as="geometry">
            <mxRectangle width="30" height="30" as="alternateBounds" />
          </mxGeometry>
        </mxCell>
        <mxCell id="GNo-StdVLnUh18D_-ZFn-698" value="content" style="shape=partialRectangle;connectable=0;fillColor=#d5e8d4;top=0;left=0;bottom=0;right=0;align=left;spacingLeft=6;overflow=hidden;whiteSpace=wrap;html=1;gradientColor=#97d077;strokeColor=#82b366;" vertex="1" parent="GNo-StdVLnUh18D_-ZFn-696">
          <mxGeometry x="30" width="150" height="30" as="geometry">
            <mxRectangle width="150" height="30" as="alternateBounds" />
          </mxGeometry>
        </mxCell>
        <mxCell id="GNo-StdVLnUh18D_-ZFn-699" value="" style="shape=tableRow;horizontal=0;startSize=0;swimlaneHead=0;swimlaneBody=0;fillColor=none;collapsible=0;dropTarget=0;points=[[0,0.5],[1,0.5]];portConstraint=eastwest;top=0;left=0;right=0;bottom=0;" vertex="1" parent="GNo-StdVLnUh18D_-ZFn-689">
          <mxGeometry y="120" width="180" height="30" as="geometry" />
        </mxCell>
        <mxCell id="GNo-StdVLnUh18D_-ZFn-700" value="" style="shape=partialRectangle;connectable=0;fillColor=#f5f5f5;top=0;left=0;bottom=0;right=0;editable=1;overflow=hidden;whiteSpace=wrap;html=1;gradientColor=#b3b3b3;strokeColor=#666666;" vertex="1" parent="GNo-StdVLnUh18D_-ZFn-699">
          <mxGeometry width="30" height="30" as="geometry">
            <mxRectangle width="30" height="30" as="alternateBounds" />
          </mxGeometry>
        </mxCell>
        <mxCell id="GNo-StdVLnUh18D_-ZFn-701" value="created_at" style="shape=partialRectangle;connectable=0;fillColor=#d5e8d4;top=0;left=0;bottom=0;right=0;align=left;spacingLeft=6;overflow=hidden;whiteSpace=wrap;html=1;gradientColor=#97d077;strokeColor=#82b366;" vertex="1" parent="GNo-StdVLnUh18D_-ZFn-699">
          <mxGeometry x="30" width="150" height="30" as="geometry">
            <mxRectangle width="150" height="30" as="alternateBounds" />
          </mxGeometry>
        </mxCell>
        <mxCell id="GNo-StdVLnUh18D_-ZFn-705" style="edgeStyle=orthogonalEdgeStyle;rounded=0;orthogonalLoop=1;jettySize=auto;html=1;exitX=1;exitY=0.5;exitDx=0;exitDy=0;entryX=0;entryY=0.75;entryDx=0;entryDy=0;entryPerimeter=0;" edge="1" parent="1" source="GNo-StdVLnUh18D_-ZFn-693" target="GNo-StdVLnUh18D_-ZFn-559">
          <mxGeometry relative="1" as="geometry" />
        </mxCell>
        <mxCell id="GNo-StdVLnUh18D_-ZFn-706" value="Notifications" style="shape=table;startSize=30;container=1;collapsible=1;childLayout=tableLayout;fixedRows=1;rowLines=0;fontStyle=1;align=center;resizeLast=1;html=1;fillColor=#dae8fc;gradientColor=#7ea6e0;strokeColor=#6c8ebf;" vertex="1" parent="1">
          <mxGeometry x="660" y="-190" width="180" height="150" as="geometry" />
        </mxCell>
        <mxCell id="GNo-StdVLnUh18D_-ZFn-707" value="" style="shape=tableRow;horizontal=0;startSize=0;swimlaneHead=0;swimlaneBody=0;fillColor=none;collapsible=0;dropTarget=0;points=[[0,0.5],[1,0.5]];portConstraint=eastwest;top=0;left=0;right=0;bottom=1;" vertex="1" parent="GNo-StdVLnUh18D_-ZFn-706">
          <mxGeometry y="30" width="180" height="30" as="geometry" />
        </mxCell>
        <mxCell id="GNo-StdVLnUh18D_-ZFn-708" value="PK" style="shape=partialRectangle;connectable=0;fillColor=#ffcd28;top=0;left=0;bottom=0;right=0;fontStyle=1;overflow=hidden;whiteSpace=wrap;html=1;gradientColor=#ffa500;strokeColor=#d79b00;" vertex="1" parent="GNo-StdVLnUh18D_-ZFn-707">
          <mxGeometry width="30" height="30" as="geometry">
            <mxRectangle width="30" height="30" as="alternateBounds" />
          </mxGeometry>
        </mxCell>
        <mxCell id="GNo-StdVLnUh18D_-ZFn-709" value="&lt;code&gt;notification_id&lt;/code&gt;" style="shape=partialRectangle;connectable=0;fillColor=#fff2cc;top=0;left=0;bottom=0;right=0;align=left;spacingLeft=6;fontStyle=5;overflow=hidden;whiteSpace=wrap;html=1;gradientColor=#ffd966;strokeColor=#d6b656;" vertex="1" parent="GNo-StdVLnUh18D_-ZFn-707">
          <mxGeometry x="30" width="150" height="30" as="geometry">
            <mxRectangle width="150" height="30" as="alternateBounds" />
          </mxGeometry>
        </mxCell>
        <mxCell id="GNo-StdVLnUh18D_-ZFn-710" value="" style="shape=tableRow;horizontal=0;startSize=0;swimlaneHead=0;swimlaneBody=0;fillColor=none;collapsible=0;dropTarget=0;points=[[0,0.5],[1,0.5]];portConstraint=eastwest;top=0;left=0;right=0;bottom=0;" vertex="1" parent="GNo-StdVLnUh18D_-ZFn-706">
          <mxGeometry y="60" width="180" height="30" as="geometry" />
        </mxCell>
        <mxCell id="GNo-StdVLnUh18D_-ZFn-711" value="" style="shape=partialRectangle;connectable=0;fillColor=#f5f5f5;top=0;left=0;bottom=0;right=0;editable=1;overflow=hidden;whiteSpace=wrap;html=1;gradientColor=#b3b3b3;strokeColor=#666666;" vertex="1" parent="GNo-StdVLnUh18D_-ZFn-710">
          <mxGeometry width="30" height="30" as="geometry">
            <mxRectangle width="30" height="30" as="alternateBounds" />
          </mxGeometry>
        </mxCell>
        <mxCell id="GNo-StdVLnUh18D_-ZFn-712" value="&lt;code&gt;user_id&lt;/code&gt;" style="shape=partialRectangle;connectable=0;fillColor=#d5e8d4;top=0;left=0;bottom=0;right=0;align=left;spacingLeft=6;overflow=hidden;whiteSpace=wrap;html=1;gradientColor=#97d077;strokeColor=#82b366;" vertex="1" parent="GNo-StdVLnUh18D_-ZFn-710">
          <mxGeometry x="30" width="150" height="30" as="geometry">
            <mxRectangle width="150" height="30" as="alternateBounds" />
          </mxGeometry>
        </mxCell>
        <mxCell id="GNo-StdVLnUh18D_-ZFn-713" value="" style="shape=tableRow;horizontal=0;startSize=0;swimlaneHead=0;swimlaneBody=0;fillColor=none;collapsible=0;dropTarget=0;points=[[0,0.5],[1,0.5]];portConstraint=eastwest;top=0;left=0;right=0;bottom=0;" vertex="1" parent="GNo-StdVLnUh18D_-ZFn-706">
          <mxGeometry y="90" width="180" height="30" as="geometry" />
        </mxCell>
        <mxCell id="GNo-StdVLnUh18D_-ZFn-714" value="" style="shape=partialRectangle;connectable=0;fillColor=#f5f5f5;top=0;left=0;bottom=0;right=0;editable=1;overflow=hidden;whiteSpace=wrap;html=1;gradientColor=#b3b3b3;strokeColor=#666666;" vertex="1" parent="GNo-StdVLnUh18D_-ZFn-713">
          <mxGeometry width="30" height="30" as="geometry">
            <mxRectangle width="30" height="30" as="alternateBounds" />
          </mxGeometry>
        </mxCell>
        <mxCell id="GNo-StdVLnUh18D_-ZFn-715" value="message" style="shape=partialRectangle;connectable=0;fillColor=#d5e8d4;top=0;left=0;bottom=0;right=0;align=left;spacingLeft=6;overflow=hidden;whiteSpace=wrap;html=1;gradientColor=#97d077;strokeColor=#82b366;" vertex="1" parent="GNo-StdVLnUh18D_-ZFn-713">
          <mxGeometry x="30" width="150" height="30" as="geometry">
            <mxRectangle width="150" height="30" as="alternateBounds" />
          </mxGeometry>
        </mxCell>
        <mxCell id="GNo-StdVLnUh18D_-ZFn-716" value="" style="shape=tableRow;horizontal=0;startSize=0;swimlaneHead=0;swimlaneBody=0;fillColor=none;collapsible=0;dropTarget=0;points=[[0,0.5],[1,0.5]];portConstraint=eastwest;top=0;left=0;right=0;bottom=0;" vertex="1" parent="GNo-StdVLnUh18D_-ZFn-706">
          <mxGeometry y="120" width="180" height="30" as="geometry" />
        </mxCell>
        <mxCell id="GNo-StdVLnUh18D_-ZFn-717" value="" style="shape=partialRectangle;connectable=0;fillColor=#f5f5f5;top=0;left=0;bottom=0;right=0;editable=1;overflow=hidden;whiteSpace=wrap;html=1;gradientColor=#b3b3b3;strokeColor=#666666;" vertex="1" parent="GNo-StdVLnUh18D_-ZFn-716">
          <mxGeometry width="30" height="30" as="geometry">
            <mxRectangle width="30" height="30" as="alternateBounds" />
          </mxGeometry>
        </mxCell>
        <mxCell id="GNo-StdVLnUh18D_-ZFn-718" value="notification_date" style="shape=partialRectangle;connectable=0;fillColor=#d5e8d4;top=0;left=0;bottom=0;right=0;align=left;spacingLeft=6;overflow=hidden;whiteSpace=wrap;html=1;gradientColor=#97d077;strokeColor=#82b366;" vertex="1" parent="GNo-StdVLnUh18D_-ZFn-716">
          <mxGeometry x="30" width="150" height="30" as="geometry">
            <mxRectangle width="150" height="30" as="alternateBounds" />
          </mxGeometry>
        </mxCell>
        <mxCell id="GNo-StdVLnUh18D_-ZFn-719" style="edgeStyle=orthogonalEdgeStyle;rounded=0;orthogonalLoop=1;jettySize=auto;html=1;exitX=0;exitY=0.5;exitDx=0;exitDy=0;entryX=1.004;entryY=0.037;entryDx=0;entryDy=0;entryPerimeter=0;" edge="1" parent="1" source="GNo-StdVLnUh18D_-ZFn-710" target="GNo-StdVLnUh18D_-ZFn-537">
          <mxGeometry relative="1" as="geometry" />
        </mxCell>
        <mxCell id="GNo-StdVLnUh18D_-ZFn-720" value="Ambulance Services" style="shape=table;startSize=30;container=1;collapsible=1;childLayout=tableLayout;fixedRows=1;rowLines=0;fontStyle=1;align=center;resizeLast=1;html=1;fillColor=#dae8fc;strokeColor=#6c8ebf;gradientColor=#7ea6e0;" vertex="1" parent="1">
          <mxGeometry x="-390" y="140" width="180" height="160" as="geometry" />
        </mxCell>
        <mxCell id="GNo-StdVLnUh18D_-ZFn-721" value="" style="shape=tableRow;horizontal=0;startSize=0;swimlaneHead=0;swimlaneBody=0;fillColor=none;collapsible=0;dropTarget=0;points=[[0,0.5],[1,0.5]];portConstraint=eastwest;top=0;left=0;right=0;bottom=1;" vertex="1" parent="GNo-StdVLnUh18D_-ZFn-720">
          <mxGeometry y="30" width="180" height="30" as="geometry" />
        </mxCell>
        <mxCell id="GNo-StdVLnUh18D_-ZFn-722" value="PK" style="shape=partialRectangle;connectable=0;fillColor=#ffcd28;top=0;left=0;bottom=0;right=0;fontStyle=1;overflow=hidden;whiteSpace=wrap;html=1;gradientColor=#ffa500;strokeColor=#d79b00;" vertex="1" parent="GNo-StdVLnUh18D_-ZFn-721">
          <mxGeometry width="30" height="30" as="geometry">
            <mxRectangle width="30" height="30" as="alternateBounds" />
          </mxGeometry>
        </mxCell>
        <mxCell id="GNo-StdVLnUh18D_-ZFn-723" value="&lt;code&gt;request_id&lt;/code&gt;" style="shape=partialRectangle;connectable=0;fillColor=#fff2cc;top=0;left=0;bottom=0;right=0;align=left;spacingLeft=6;fontStyle=5;overflow=hidden;whiteSpace=wrap;html=1;gradientColor=#ffd966;strokeColor=#d6b656;" vertex="1" parent="GNo-StdVLnUh18D_-ZFn-721">
          <mxGeometry x="30" width="150" height="30" as="geometry">
            <mxRectangle width="150" height="30" as="alternateBounds" />
          </mxGeometry>
        </mxCell>
        <mxCell id="GNo-StdVLnUh18D_-ZFn-724" value="" style="shape=tableRow;horizontal=0;startSize=0;swimlaneHead=0;swimlaneBody=0;fillColor=none;collapsible=0;dropTarget=0;points=[[0,0.5],[1,0.5]];portConstraint=eastwest;top=0;left=0;right=0;bottom=0;" vertex="1" parent="GNo-StdVLnUh18D_-ZFn-720">
          <mxGeometry y="60" width="180" height="30" as="geometry" />
        </mxCell>
        <mxCell id="GNo-StdVLnUh18D_-ZFn-725" value="" style="shape=partialRectangle;connectable=0;fillColor=#f5f5f5;top=0;left=0;bottom=0;right=0;editable=1;overflow=hidden;whiteSpace=wrap;html=1;strokeColor=#666666;gradientColor=#b3b3b3;" vertex="1" parent="GNo-StdVLnUh18D_-ZFn-724">
          <mxGeometry width="30" height="30" as="geometry">
            <mxRectangle width="30" height="30" as="alternateBounds" />
          </mxGeometry>
        </mxCell>
        <mxCell id="GNo-StdVLnUh18D_-ZFn-726" value="&lt;code&gt;user_id&lt;/code&gt;" style="shape=partialRectangle;connectable=0;fillColor=#d5e8d4;top=0;left=0;bottom=0;right=0;align=left;spacingLeft=6;overflow=hidden;whiteSpace=wrap;html=1;gradientColor=#97d077;strokeColor=#82b366;" vertex="1" parent="GNo-StdVLnUh18D_-ZFn-724">
          <mxGeometry x="30" width="150" height="30" as="geometry">
            <mxRectangle width="150" height="30" as="alternateBounds" />
          </mxGeometry>
        </mxCell>
        <mxCell id="GNo-StdVLnUh18D_-ZFn-727" value="" style="shape=tableRow;horizontal=0;startSize=0;swimlaneHead=0;swimlaneBody=0;fillColor=none;collapsible=0;dropTarget=0;points=[[0,0.5],[1,0.5]];portConstraint=eastwest;top=0;left=0;right=0;bottom=0;" vertex="1" parent="GNo-StdVLnUh18D_-ZFn-720">
          <mxGeometry y="90" width="180" height="40" as="geometry" />
        </mxCell>
        <mxCell id="GNo-StdVLnUh18D_-ZFn-728" value="" style="shape=partialRectangle;connectable=0;fillColor=#f5f5f5;top=0;left=0;bottom=0;right=0;editable=1;overflow=hidden;whiteSpace=wrap;html=1;strokeColor=#666666;gradientColor=#b3b3b3;" vertex="1" parent="GNo-StdVLnUh18D_-ZFn-727">
          <mxGeometry width="30" height="40" as="geometry">
            <mxRectangle width="30" height="40" as="alternateBounds" />
          </mxGeometry>
        </mxCell>
        <mxCell id="GNo-StdVLnUh18D_-ZFn-729" value="request_time" style="shape=partialRectangle;connectable=0;fillColor=#d5e8d4;top=0;left=0;bottom=0;right=0;align=left;spacingLeft=6;overflow=hidden;whiteSpace=wrap;html=1;gradientColor=#97d077;strokeColor=#82b366;" vertex="1" parent="GNo-StdVLnUh18D_-ZFn-727">
          <mxGeometry x="30" width="150" height="40" as="geometry">
            <mxRectangle width="150" height="40" as="alternateBounds" />
          </mxGeometry>
        </mxCell>
        <mxCell id="GNo-StdVLnUh18D_-ZFn-730" value="" style="shape=tableRow;horizontal=0;startSize=0;swimlaneHead=0;swimlaneBody=0;fillColor=none;collapsible=0;dropTarget=0;points=[[0,0.5],[1,0.5]];portConstraint=eastwest;top=0;left=0;right=0;bottom=0;" vertex="1" parent="GNo-StdVLnUh18D_-ZFn-720">
          <mxGeometry y="130" width="180" height="30" as="geometry" />
        </mxCell>
        <mxCell id="GNo-StdVLnUh18D_-ZFn-731" value="" style="shape=partialRectangle;connectable=0;fillColor=#f5f5f5;top=0;left=0;bottom=0;right=0;editable=1;overflow=hidden;whiteSpace=wrap;html=1;strokeColor=#666666;gradientColor=#b3b3b3;" vertex="1" parent="GNo-StdVLnUh18D_-ZFn-730">
          <mxGeometry width="30" height="30" as="geometry">
            <mxRectangle width="30" height="30" as="alternateBounds" />
          </mxGeometry>
        </mxCell>
        <mxCell id="GNo-StdVLnUh18D_-ZFn-732" value="pickup_location" style="shape=partialRectangle;connectable=0;fillColor=#d5e8d4;top=0;left=0;bottom=0;right=0;align=left;spacingLeft=6;overflow=hidden;whiteSpace=wrap;html=1;gradientColor=#97d077;strokeColor=#82b366;" vertex="1" parent="GNo-StdVLnUh18D_-ZFn-730">
          <mxGeometry x="30" width="150" height="30" as="geometry">
            <mxRectangle width="150" height="30" as="alternateBounds" />
          </mxGeometry>
        </mxCell>
        <mxCell id="GNo-StdVLnUh18D_-ZFn-735" style="edgeStyle=orthogonalEdgeStyle;rounded=0;orthogonalLoop=1;jettySize=auto;html=1;exitX=1;exitY=0.5;exitDx=0;exitDy=0;entryX=0;entryY=0.4;entryDx=0;entryDy=0;entryPerimeter=0;" edge="1" parent="1" source="GNo-StdVLnUh18D_-ZFn-724" target="GNo-StdVLnUh18D_-ZFn-537">
          <mxGeometry relative="1" as="geometry">
            <Array as="points">
              <mxPoint x="-210" y="220" />
            </Array>
          </mxGeometry>
        </mxCell>
      </root>
    </mxGraphModel>
  </diagram>
</mxfile>
